<mxfile host="app.diagrams.net" modified="2023-09-06T12:37:44.246Z" agent="Mozilla/5.0 (Windows NT 10.0; Win64; x64) AppleWebKit/537.36 (KHTML, like Gecko) Chrome/105.0.0.0 Safari/537.36" etag="mBnRO80_e04TJKHw1K5l" version="21.6.6" type="device">
  <diagram name="Strona-1" id="SK47CS4bZNbIK0wlR7om">
    <mxGraphModel dx="1687" dy="2038" grid="1" gridSize="10" guides="1" tooltips="1" connect="1" arrows="1" fold="1" page="1" pageScale="1" pageWidth="827" pageHeight="1169" math="0" shadow="0">
      <root>
        <mxCell id="0" />
        <mxCell id="1" parent="0" />
        <mxCell id="Z0uKMzJHQEfr-BB_KsoD-1" value="0.125: 3&lt;br style=&quot;font-size: 13px;&quot;&gt;0.3: 3&lt;br style=&quot;font-size: 13px;&quot;&gt;0.4: 2&lt;br style=&quot;font-size: 13px;&quot;&gt;0.5: 3&lt;br style=&quot;font-size: 13px;&quot;&gt;0.7: 1&lt;br style=&quot;font-size: 13px;&quot;&gt;0.8: 1" style="ellipse;whiteSpace=wrap;html=1;aspect=fixed;fillColor=#dae8fc;strokeColor=#6c8ebf;fontSize=13;" vertex="1" parent="1">
          <mxGeometry x="320" y="30" width="120" height="120" as="geometry" />
        </mxCell>
        <mxCell id="Z0uKMzJHQEfr-BB_KsoD-2" value="0.3: 2&lt;br style=&quot;font-size: 13px;&quot;&gt;0.4: 1&lt;br style=&quot;font-size: 13px;&quot;&gt;0.7: 1&lt;br style=&quot;font-size: 13px;&quot;&gt;0.8: 1" style="ellipse;whiteSpace=wrap;html=1;aspect=fixed;fillColor=#dae8fc;strokeColor=#6c8ebf;fontSize=13;" vertex="1" parent="1">
          <mxGeometry x="160" y="200" width="80" height="80" as="geometry" />
        </mxCell>
        <mxCell id="Z0uKMzJHQEfr-BB_KsoD-3" value="0.125: 1" style="ellipse;whiteSpace=wrap;html=1;aspect=fixed;fontSize=13;" vertex="1" parent="1">
          <mxGeometry x="280" y="200" width="80" height="80" as="geometry" />
        </mxCell>
        <mxCell id="Z0uKMzJHQEfr-BB_KsoD-4" value="0.3: 1" style="ellipse;whiteSpace=wrap;html=1;aspect=fixed;fontSize=13;" vertex="1" parent="1">
          <mxGeometry x="400" y="200" width="80" height="80" as="geometry" />
        </mxCell>
        <mxCell id="Z0uKMzJHQEfr-BB_KsoD-5" value="0.125: 2&lt;br style=&quot;font-size: 13px;&quot;&gt;0.4: 1&lt;br style=&quot;font-size: 13px;&quot;&gt;0.5: 3" style="ellipse;whiteSpace=wrap;html=1;aspect=fixed;fontSize=13;" vertex="1" parent="1">
          <mxGeometry x="520" y="200" width="80" height="80" as="geometry" />
        </mxCell>
        <mxCell id="Z0uKMzJHQEfr-BB_KsoD-7" value="" style="endArrow=classic;html=1;rounded=0;exitX=0.063;exitY=0.725;exitDx=0;exitDy=0;entryX=1;entryY=0;entryDx=0;entryDy=0;exitPerimeter=0;fontSize=13;" edge="1" parent="1" source="Z0uKMzJHQEfr-BB_KsoD-1" target="Z0uKMzJHQEfr-BB_KsoD-2">
          <mxGeometry width="50" height="50" relative="1" as="geometry">
            <mxPoint x="250" y="180" as="sourcePoint" />
            <mxPoint x="300" y="130" as="targetPoint" />
          </mxGeometry>
        </mxCell>
        <mxCell id="Z0uKMzJHQEfr-BB_KsoD-8" value="" style="endArrow=classic;html=1;rounded=0;exitX=0.263;exitY=0.938;exitDx=0;exitDy=0;entryX=0.5;entryY=0;entryDx=0;entryDy=0;exitPerimeter=0;fontSize=13;" edge="1" parent="1" source="Z0uKMzJHQEfr-BB_KsoD-1" target="Z0uKMzJHQEfr-BB_KsoD-3">
          <mxGeometry width="50" height="50" relative="1" as="geometry">
            <mxPoint x="360" y="200" as="sourcePoint" />
            <mxPoint x="410" y="150" as="targetPoint" />
          </mxGeometry>
        </mxCell>
        <mxCell id="Z0uKMzJHQEfr-BB_KsoD-9" value="" style="endArrow=classic;html=1;rounded=0;exitX=0.713;exitY=0.963;exitDx=0;exitDy=0;entryX=0.5;entryY=0;entryDx=0;entryDy=0;exitPerimeter=0;fontSize=13;" edge="1" parent="1" source="Z0uKMzJHQEfr-BB_KsoD-1" target="Z0uKMzJHQEfr-BB_KsoD-4">
          <mxGeometry width="50" height="50" relative="1" as="geometry">
            <mxPoint x="460" y="180" as="sourcePoint" />
            <mxPoint x="510" y="130" as="targetPoint" />
          </mxGeometry>
        </mxCell>
        <mxCell id="Z0uKMzJHQEfr-BB_KsoD-10" value="" style="endArrow=classic;html=1;rounded=0;exitX=0.975;exitY=0.725;exitDx=0;exitDy=0;entryX=0;entryY=0;entryDx=0;entryDy=0;exitPerimeter=0;fontSize=13;" edge="1" parent="1" source="Z0uKMzJHQEfr-BB_KsoD-1" target="Z0uKMzJHQEfr-BB_KsoD-5">
          <mxGeometry width="50" height="50" relative="1" as="geometry">
            <mxPoint x="510" y="160" as="sourcePoint" />
            <mxPoint x="560" y="110" as="targetPoint" />
          </mxGeometry>
        </mxCell>
        <mxCell id="Z0uKMzJHQEfr-BB_KsoD-11" value="0.125: 2&lt;br style=&quot;font-size: 13px;&quot;&gt;0.5: 1" style="ellipse;whiteSpace=wrap;html=1;aspect=fixed;fontSize=13;" vertex="1" parent="1">
          <mxGeometry x="460" y="320" width="80" height="80" as="geometry" />
        </mxCell>
        <mxCell id="Z0uKMzJHQEfr-BB_KsoD-17" style="edgeStyle=orthogonalEdgeStyle;rounded=0;orthogonalLoop=1;jettySize=auto;html=1;exitX=0.5;exitY=1;exitDx=0;exitDy=0;entryX=0.5;entryY=0;entryDx=0;entryDy=0;fontSize=13;" edge="1" parent="1" source="Z0uKMzJHQEfr-BB_KsoD-12" target="Z0uKMzJHQEfr-BB_KsoD-16">
          <mxGeometry relative="1" as="geometry" />
        </mxCell>
        <mxCell id="Z0uKMzJHQEfr-BB_KsoD-12" value="0.4: 1&lt;br style=&quot;font-size: 13px;&quot;&gt;0.5: 3" style="ellipse;whiteSpace=wrap;html=1;aspect=fixed;fontSize=13;" vertex="1" parent="1">
          <mxGeometry x="580" y="320" width="80" height="80" as="geometry" />
        </mxCell>
        <mxCell id="Z0uKMzJHQEfr-BB_KsoD-14" value="" style="endArrow=classic;html=1;rounded=0;exitX=0;exitY=1;exitDx=0;exitDy=0;entryX=0.5;entryY=0;entryDx=0;entryDy=0;fontSize=13;" edge="1" parent="1" source="Z0uKMzJHQEfr-BB_KsoD-5" target="Z0uKMzJHQEfr-BB_KsoD-11">
          <mxGeometry width="50" height="50" relative="1" as="geometry">
            <mxPoint x="540" y="470" as="sourcePoint" />
            <mxPoint x="590" y="420" as="targetPoint" />
          </mxGeometry>
        </mxCell>
        <mxCell id="Z0uKMzJHQEfr-BB_KsoD-15" value="" style="endArrow=classic;html=1;rounded=0;exitX=1;exitY=1;exitDx=0;exitDy=0;entryX=0.5;entryY=0;entryDx=0;entryDy=0;fontSize=13;" edge="1" parent="1" source="Z0uKMzJHQEfr-BB_KsoD-5" target="Z0uKMzJHQEfr-BB_KsoD-12">
          <mxGeometry width="50" height="50" relative="1" as="geometry">
            <mxPoint x="670" y="290" as="sourcePoint" />
            <mxPoint x="720" y="240" as="targetPoint" />
          </mxGeometry>
        </mxCell>
        <mxCell id="Z0uKMzJHQEfr-BB_KsoD-16" value="0.4: 1&lt;br style=&quot;border-color: var(--border-color); font-size: 13px;&quot;&gt;0.5: 3" style="ellipse;whiteSpace=wrap;html=1;aspect=fixed;fontSize=13;" vertex="1" parent="1">
          <mxGeometry x="580" y="440" width="80" height="80" as="geometry" />
        </mxCell>
        <mxCell id="Z0uKMzJHQEfr-BB_KsoD-18" value="0.4: 1" style="ellipse;whiteSpace=wrap;html=1;aspect=fixed;fontSize=13;" vertex="1" parent="1">
          <mxGeometry x="100" y="320" width="80" height="80" as="geometry" />
        </mxCell>
        <mxCell id="Z0uKMzJHQEfr-BB_KsoD-19" value="0.3: 2&lt;br style=&quot;font-size: 13px;&quot;&gt;0.7: 1&lt;br style=&quot;font-size: 13px;&quot;&gt;0.8: 1" style="ellipse;whiteSpace=wrap;html=1;aspect=fixed;fillColor=#dae8fc;strokeColor=#6c8ebf;fontSize=13;" vertex="1" parent="1">
          <mxGeometry x="220" y="320" width="80" height="80" as="geometry" />
        </mxCell>
        <mxCell id="Z0uKMzJHQEfr-BB_KsoD-20" value="" style="endArrow=classic;html=1;rounded=0;exitX=0;exitY=1;exitDx=0;exitDy=0;entryX=0.5;entryY=0;entryDx=0;entryDy=0;fontSize=13;" edge="1" parent="1" source="Z0uKMzJHQEfr-BB_KsoD-2" target="Z0uKMzJHQEfr-BB_KsoD-18">
          <mxGeometry width="50" height="50" relative="1" as="geometry">
            <mxPoint x="50" y="300" as="sourcePoint" />
            <mxPoint x="100" y="250" as="targetPoint" />
          </mxGeometry>
        </mxCell>
        <mxCell id="Z0uKMzJHQEfr-BB_KsoD-21" value="" style="endArrow=classic;html=1;rounded=0;exitX=1;exitY=1;exitDx=0;exitDy=0;entryX=0.388;entryY=0.038;entryDx=0;entryDy=0;entryPerimeter=0;fontSize=13;" edge="1" parent="1" source="Z0uKMzJHQEfr-BB_KsoD-2" target="Z0uKMzJHQEfr-BB_KsoD-19">
          <mxGeometry width="50" height="50" relative="1" as="geometry">
            <mxPoint x="250" y="480" as="sourcePoint" />
            <mxPoint x="300" y="430" as="targetPoint" />
          </mxGeometry>
        </mxCell>
        <mxCell id="Z0uKMzJHQEfr-BB_KsoD-22" value="0.4: 1" style="ellipse;whiteSpace=wrap;html=1;aspect=fixed;fontSize=13;" vertex="1" parent="1">
          <mxGeometry x="40" y="440" width="80" height="80" as="geometry" />
        </mxCell>
        <mxCell id="Z0uKMzJHQEfr-BB_KsoD-24" value="0.3: 2" style="ellipse;whiteSpace=wrap;html=1;aspect=fixed;fontSize=13;" vertex="1" parent="1">
          <mxGeometry x="170" y="440" width="80" height="80" as="geometry" />
        </mxCell>
        <mxCell id="Z0uKMzJHQEfr-BB_KsoD-25" value="" style="endArrow=classic;html=1;rounded=0;exitX=0;exitY=1;exitDx=0;exitDy=0;entryX=0.5;entryY=0;entryDx=0;entryDy=0;fontSize=13;" edge="1" parent="1" source="Z0uKMzJHQEfr-BB_KsoD-18" target="Z0uKMzJHQEfr-BB_KsoD-22">
          <mxGeometry width="50" height="50" relative="1" as="geometry">
            <mxPoint x="40" y="470" as="sourcePoint" />
            <mxPoint x="90" y="420" as="targetPoint" />
          </mxGeometry>
        </mxCell>
        <mxCell id="Z0uKMzJHQEfr-BB_KsoD-26" value="0.7:1&lt;br style=&quot;font-size: 13px;&quot;&gt;0.8: 1&lt;br style=&quot;font-size: 13px;&quot;&gt;&lt;b&gt;Węzeł wybrany&lt;br style=&quot;border-color: var(--border-color); font-size: 13px;&quot;&gt;w tym kroku&lt;/b&gt;" style="ellipse;whiteSpace=wrap;html=1;aspect=fixed;fillColor=#d5e8d4;strokeColor=#82b366;fontSize=13;" vertex="1" parent="1">
          <mxGeometry x="260" y="430" width="100" height="100" as="geometry" />
        </mxCell>
        <mxCell id="Z0uKMzJHQEfr-BB_KsoD-27" value="" style="endArrow=classic;html=1;rounded=0;exitX=0;exitY=1;exitDx=0;exitDy=0;entryX=0.5;entryY=0;entryDx=0;entryDy=0;fontSize=13;" edge="1" parent="1" source="Z0uKMzJHQEfr-BB_KsoD-19" target="Z0uKMzJHQEfr-BB_KsoD-24">
          <mxGeometry width="50" height="50" relative="1" as="geometry">
            <mxPoint x="300" y="600" as="sourcePoint" />
            <mxPoint x="350" y="550" as="targetPoint" />
          </mxGeometry>
        </mxCell>
        <mxCell id="Z0uKMzJHQEfr-BB_KsoD-28" value="" style="endArrow=classic;html=1;rounded=0;exitX=1;exitY=1;exitDx=0;exitDy=0;entryX=0.5;entryY=0;entryDx=0;entryDy=0;fontSize=13;" edge="1" parent="1" source="Z0uKMzJHQEfr-BB_KsoD-19" target="Z0uKMzJHQEfr-BB_KsoD-26">
          <mxGeometry width="50" height="50" relative="1" as="geometry">
            <mxPoint x="330" y="440" as="sourcePoint" />
            <mxPoint x="380" y="390" as="targetPoint" />
          </mxGeometry>
        </mxCell>
        <mxCell id="Z0uKMzJHQEfr-BB_KsoD-29" value="0.125: 3&lt;br style=&quot;font-size: 13px;&quot;&gt;0.3: 3&lt;br style=&quot;font-size: 13px;&quot;&gt;0.4: 2&lt;br style=&quot;font-size: 13px;&quot;&gt;0.5: 3&lt;br style=&quot;font-size: 13px;&quot;&gt;0.7: 1&lt;br style=&quot;font-size: 13px;&quot;&gt;0.8: 1" style="ellipse;whiteSpace=wrap;html=1;aspect=fixed;fontSize=13;" vertex="1" parent="1">
          <mxGeometry x="1000" y="30" width="120" height="120" as="geometry" />
        </mxCell>
        <mxCell id="Z0uKMzJHQEfr-BB_KsoD-30" value="0.3: 2&lt;br style=&quot;font-size: 13px;&quot;&gt;0.4: 1&lt;br style=&quot;font-size: 13px;&quot;&gt;0.7: 1&lt;br style=&quot;font-size: 13px;&quot;&gt;0.8: 1" style="ellipse;whiteSpace=wrap;html=1;aspect=fixed;fontSize=13;" vertex="1" parent="1">
          <mxGeometry x="840" y="200" width="80" height="80" as="geometry" />
        </mxCell>
        <mxCell id="Z0uKMzJHQEfr-BB_KsoD-31" value="0.125: 1" style="ellipse;whiteSpace=wrap;html=1;aspect=fixed;fontSize=13;" vertex="1" parent="1">
          <mxGeometry x="960" y="200" width="80" height="80" as="geometry" />
        </mxCell>
        <mxCell id="Z0uKMzJHQEfr-BB_KsoD-32" value="0.3: 1" style="ellipse;whiteSpace=wrap;html=1;aspect=fixed;fontSize=13;" vertex="1" parent="1">
          <mxGeometry x="1080" y="200" width="80" height="80" as="geometry" />
        </mxCell>
        <mxCell id="Z0uKMzJHQEfr-BB_KsoD-33" value="0.125: 2&lt;br style=&quot;font-size: 13px;&quot;&gt;0.4: 1&lt;br style=&quot;font-size: 13px;&quot;&gt;0.5: 3" style="ellipse;whiteSpace=wrap;html=1;aspect=fixed;fontSize=13;" vertex="1" parent="1">
          <mxGeometry x="1200" y="200" width="80" height="80" as="geometry" />
        </mxCell>
        <mxCell id="Z0uKMzJHQEfr-BB_KsoD-34" value="" style="endArrow=classic;html=1;rounded=0;exitX=0.063;exitY=0.725;exitDx=0;exitDy=0;entryX=1;entryY=0;entryDx=0;entryDy=0;exitPerimeter=0;fontSize=13;" edge="1" parent="1" source="Z0uKMzJHQEfr-BB_KsoD-29" target="Z0uKMzJHQEfr-BB_KsoD-30">
          <mxGeometry width="50" height="50" relative="1" as="geometry">
            <mxPoint x="930" y="180" as="sourcePoint" />
            <mxPoint x="980" y="130" as="targetPoint" />
          </mxGeometry>
        </mxCell>
        <mxCell id="Z0uKMzJHQEfr-BB_KsoD-35" value="" style="endArrow=classic;html=1;rounded=0;exitX=0.263;exitY=0.938;exitDx=0;exitDy=0;entryX=0.5;entryY=0;entryDx=0;entryDy=0;exitPerimeter=0;fontSize=13;" edge="1" parent="1" source="Z0uKMzJHQEfr-BB_KsoD-29" target="Z0uKMzJHQEfr-BB_KsoD-31">
          <mxGeometry width="50" height="50" relative="1" as="geometry">
            <mxPoint x="1040" y="200" as="sourcePoint" />
            <mxPoint x="1090" y="150" as="targetPoint" />
          </mxGeometry>
        </mxCell>
        <mxCell id="Z0uKMzJHQEfr-BB_KsoD-36" value="" style="endArrow=classic;html=1;rounded=0;exitX=0.713;exitY=0.963;exitDx=0;exitDy=0;entryX=0.5;entryY=0;entryDx=0;entryDy=0;exitPerimeter=0;fontSize=13;" edge="1" parent="1" source="Z0uKMzJHQEfr-BB_KsoD-29" target="Z0uKMzJHQEfr-BB_KsoD-32">
          <mxGeometry width="50" height="50" relative="1" as="geometry">
            <mxPoint x="1140" y="180" as="sourcePoint" />
            <mxPoint x="1190" y="130" as="targetPoint" />
          </mxGeometry>
        </mxCell>
        <mxCell id="Z0uKMzJHQEfr-BB_KsoD-37" value="" style="endArrow=classic;html=1;rounded=0;exitX=0.975;exitY=0.725;exitDx=0;exitDy=0;entryX=0;entryY=0;entryDx=0;entryDy=0;exitPerimeter=0;fontSize=13;" edge="1" parent="1" source="Z0uKMzJHQEfr-BB_KsoD-29" target="Z0uKMzJHQEfr-BB_KsoD-33">
          <mxGeometry width="50" height="50" relative="1" as="geometry">
            <mxPoint x="1190" y="160" as="sourcePoint" />
            <mxPoint x="1240" y="110" as="targetPoint" />
          </mxGeometry>
        </mxCell>
        <mxCell id="Z0uKMzJHQEfr-BB_KsoD-38" value="0.125: 2&lt;br style=&quot;font-size: 13px;&quot;&gt;0.5: 1" style="ellipse;whiteSpace=wrap;html=1;aspect=fixed;fontSize=13;" vertex="1" parent="1">
          <mxGeometry x="1140" y="320" width="80" height="80" as="geometry" />
        </mxCell>
        <mxCell id="Z0uKMzJHQEfr-BB_KsoD-39" style="edgeStyle=orthogonalEdgeStyle;rounded=0;orthogonalLoop=1;jettySize=auto;html=1;exitX=0.5;exitY=1;exitDx=0;exitDy=0;entryX=0.5;entryY=0;entryDx=0;entryDy=0;fontSize=13;" edge="1" parent="1" source="Z0uKMzJHQEfr-BB_KsoD-40" target="Z0uKMzJHQEfr-BB_KsoD-43">
          <mxGeometry relative="1" as="geometry" />
        </mxCell>
        <mxCell id="Z0uKMzJHQEfr-BB_KsoD-40" value="0.4: 1&lt;br style=&quot;font-size: 13px;&quot;&gt;0.5: 3" style="ellipse;whiteSpace=wrap;html=1;aspect=fixed;fontSize=13;" vertex="1" parent="1">
          <mxGeometry x="1260" y="320" width="80" height="80" as="geometry" />
        </mxCell>
        <mxCell id="Z0uKMzJHQEfr-BB_KsoD-41" value="" style="endArrow=classic;html=1;rounded=0;exitX=0;exitY=1;exitDx=0;exitDy=0;entryX=0.5;entryY=0;entryDx=0;entryDy=0;fontSize=13;" edge="1" parent="1" source="Z0uKMzJHQEfr-BB_KsoD-33" target="Z0uKMzJHQEfr-BB_KsoD-38">
          <mxGeometry width="50" height="50" relative="1" as="geometry">
            <mxPoint x="1220" y="470" as="sourcePoint" />
            <mxPoint x="1270" y="420" as="targetPoint" />
          </mxGeometry>
        </mxCell>
        <mxCell id="Z0uKMzJHQEfr-BB_KsoD-42" value="" style="endArrow=classic;html=1;rounded=0;exitX=1;exitY=1;exitDx=0;exitDy=0;entryX=0.5;entryY=0;entryDx=0;entryDy=0;fontSize=13;" edge="1" parent="1" source="Z0uKMzJHQEfr-BB_KsoD-33" target="Z0uKMzJHQEfr-BB_KsoD-40">
          <mxGeometry width="50" height="50" relative="1" as="geometry">
            <mxPoint x="1350" y="290" as="sourcePoint" />
            <mxPoint x="1400" y="240" as="targetPoint" />
          </mxGeometry>
        </mxCell>
        <mxCell id="Z0uKMzJHQEfr-BB_KsoD-43" value="0.4: 1&lt;br style=&quot;border-color: var(--border-color); font-size: 13px;&quot;&gt;0.5: 3" style="ellipse;whiteSpace=wrap;html=1;aspect=fixed;fontSize=13;" vertex="1" parent="1">
          <mxGeometry x="1260" y="440" width="80" height="80" as="geometry" />
        </mxCell>
        <mxCell id="Z0uKMzJHQEfr-BB_KsoD-44" value="0.4: 1" style="ellipse;whiteSpace=wrap;html=1;aspect=fixed;fontSize=13;" vertex="1" parent="1">
          <mxGeometry x="780" y="320" width="80" height="80" as="geometry" />
        </mxCell>
        <mxCell id="Z0uKMzJHQEfr-BB_KsoD-45" value="0.3: 2&lt;br style=&quot;font-size: 13px;&quot;&gt;0.7: 1&lt;br style=&quot;font-size: 13px;&quot;&gt;0.8: 1" style="ellipse;whiteSpace=wrap;html=1;aspect=fixed;fontSize=13;" vertex="1" parent="1">
          <mxGeometry x="900" y="320" width="80" height="80" as="geometry" />
        </mxCell>
        <mxCell id="Z0uKMzJHQEfr-BB_KsoD-46" value="" style="endArrow=classic;html=1;rounded=0;exitX=0;exitY=1;exitDx=0;exitDy=0;entryX=0.5;entryY=0;entryDx=0;entryDy=0;fontSize=13;" edge="1" parent="1" source="Z0uKMzJHQEfr-BB_KsoD-30" target="Z0uKMzJHQEfr-BB_KsoD-44">
          <mxGeometry width="50" height="50" relative="1" as="geometry">
            <mxPoint x="730" y="300" as="sourcePoint" />
            <mxPoint x="780" y="250" as="targetPoint" />
          </mxGeometry>
        </mxCell>
        <mxCell id="Z0uKMzJHQEfr-BB_KsoD-47" value="" style="endArrow=classic;html=1;rounded=0;exitX=1;exitY=1;exitDx=0;exitDy=0;entryX=0.388;entryY=0.038;entryDx=0;entryDy=0;entryPerimeter=0;fontSize=13;" edge="1" parent="1" source="Z0uKMzJHQEfr-BB_KsoD-30" target="Z0uKMzJHQEfr-BB_KsoD-45">
          <mxGeometry width="50" height="50" relative="1" as="geometry">
            <mxPoint x="930" y="480" as="sourcePoint" />
            <mxPoint x="980" y="430" as="targetPoint" />
          </mxGeometry>
        </mxCell>
        <mxCell id="Z0uKMzJHQEfr-BB_KsoD-48" value="0.4: 1" style="ellipse;whiteSpace=wrap;html=1;aspect=fixed;fontSize=13;" vertex="1" parent="1">
          <mxGeometry x="720" y="440" width="80" height="80" as="geometry" />
        </mxCell>
        <mxCell id="Z0uKMzJHQEfr-BB_KsoD-49" value="0.3: 2" style="ellipse;whiteSpace=wrap;html=1;aspect=fixed;fontSize=13;" vertex="1" parent="1">
          <mxGeometry x="850" y="440" width="80" height="80" as="geometry" />
        </mxCell>
        <mxCell id="Z0uKMzJHQEfr-BB_KsoD-50" value="" style="endArrow=classic;html=1;rounded=0;exitX=0;exitY=1;exitDx=0;exitDy=0;entryX=0.5;entryY=0;entryDx=0;entryDy=0;fontSize=13;" edge="1" parent="1" source="Z0uKMzJHQEfr-BB_KsoD-44" target="Z0uKMzJHQEfr-BB_KsoD-48">
          <mxGeometry width="50" height="50" relative="1" as="geometry">
            <mxPoint x="720" y="470" as="sourcePoint" />
            <mxPoint x="770" y="420" as="targetPoint" />
          </mxGeometry>
        </mxCell>
        <mxCell id="Z0uKMzJHQEfr-BB_KsoD-57" style="edgeStyle=orthogonalEdgeStyle;rounded=0;orthogonalLoop=1;jettySize=auto;html=1;exitX=0.5;exitY=1;exitDx=0;exitDy=0;entryX=0.5;entryY=0;entryDx=0;entryDy=0;fontSize=13;" edge="1" parent="1" source="Z0uKMzJHQEfr-BB_KsoD-51" target="Z0uKMzJHQEfr-BB_KsoD-56">
          <mxGeometry relative="1" as="geometry" />
        </mxCell>
        <mxCell id="Z0uKMzJHQEfr-BB_KsoD-51" value="0.7:1&lt;br style=&quot;font-size: 13px;&quot;&gt;0.8: 1" style="ellipse;whiteSpace=wrap;html=1;aspect=fixed;fontSize=13;" vertex="1" parent="1">
          <mxGeometry x="950" y="440" width="80" height="80" as="geometry" />
        </mxCell>
        <mxCell id="Z0uKMzJHQEfr-BB_KsoD-52" value="" style="endArrow=classic;html=1;rounded=0;exitX=0;exitY=1;exitDx=0;exitDy=0;entryX=0.5;entryY=0;entryDx=0;entryDy=0;fontSize=13;" edge="1" parent="1" source="Z0uKMzJHQEfr-BB_KsoD-45" target="Z0uKMzJHQEfr-BB_KsoD-49">
          <mxGeometry width="50" height="50" relative="1" as="geometry">
            <mxPoint x="980" y="600" as="sourcePoint" />
            <mxPoint x="1030" y="550" as="targetPoint" />
          </mxGeometry>
        </mxCell>
        <mxCell id="Z0uKMzJHQEfr-BB_KsoD-53" value="" style="endArrow=classic;html=1;rounded=0;exitX=1;exitY=1;exitDx=0;exitDy=0;entryX=0.5;entryY=0;entryDx=0;entryDy=0;fontSize=13;" edge="1" parent="1" source="Z0uKMzJHQEfr-BB_KsoD-45" target="Z0uKMzJHQEfr-BB_KsoD-51">
          <mxGeometry width="50" height="50" relative="1" as="geometry">
            <mxPoint x="1010" y="440" as="sourcePoint" />
            <mxPoint x="1060" y="390" as="targetPoint" />
          </mxGeometry>
        </mxCell>
        <mxCell id="Z0uKMzJHQEfr-BB_KsoD-54" value="Wybór" style="text;html=1;align=center;verticalAlign=middle;resizable=0;points=[];autosize=1;strokeColor=none;fillColor=none;fontSize=20;fontStyle=1" vertex="1" parent="1">
          <mxGeometry x="335" y="-20" width="90" height="40" as="geometry" />
        </mxCell>
        <mxCell id="Z0uKMzJHQEfr-BB_KsoD-55" value="Rozrost" style="text;html=1;align=center;verticalAlign=middle;resizable=0;points=[];autosize=1;strokeColor=none;fillColor=none;fontSize=20;fontStyle=1" vertex="1" parent="1">
          <mxGeometry x="1010" y="-20" width="100" height="40" as="geometry" />
        </mxCell>
        <mxCell id="Z0uKMzJHQEfr-BB_KsoD-56" value="&lt;b&gt;Nowy węzeł&lt;/b&gt;" style="ellipse;whiteSpace=wrap;html=1;aspect=fixed;fillColor=#d5e8d4;strokeColor=#82b366;fontSize=13;" vertex="1" parent="1">
          <mxGeometry x="950" y="560" width="80" height="80" as="geometry" />
        </mxCell>
        <mxCell id="Z0uKMzJHQEfr-BB_KsoD-58" value="0.125: 3&lt;br style=&quot;font-size: 13px;&quot;&gt;0.3: 3&lt;br style=&quot;font-size: 13px;&quot;&gt;0.4: 2&lt;br style=&quot;font-size: 13px;&quot;&gt;0.5: 3&lt;br style=&quot;font-size: 13px;&quot;&gt;0.7: 1&lt;br style=&quot;font-size: 13px;&quot;&gt;0.8: 1" style="ellipse;whiteSpace=wrap;html=1;aspect=fixed;fontSize=13;" vertex="1" parent="1">
          <mxGeometry x="320" y="720" width="120" height="120" as="geometry" />
        </mxCell>
        <mxCell id="Z0uKMzJHQEfr-BB_KsoD-59" value="0.3: 2&lt;br style=&quot;font-size: 13px;&quot;&gt;0.4: 1&lt;br style=&quot;font-size: 13px;&quot;&gt;0.7: 1&lt;br style=&quot;font-size: 13px;&quot;&gt;0.8: 1" style="ellipse;whiteSpace=wrap;html=1;aspect=fixed;fontSize=13;" vertex="1" parent="1">
          <mxGeometry x="160" y="890" width="80" height="80" as="geometry" />
        </mxCell>
        <mxCell id="Z0uKMzJHQEfr-BB_KsoD-60" value="0.125: 1" style="ellipse;whiteSpace=wrap;html=1;aspect=fixed;fontSize=13;" vertex="1" parent="1">
          <mxGeometry x="280" y="890" width="80" height="80" as="geometry" />
        </mxCell>
        <mxCell id="Z0uKMzJHQEfr-BB_KsoD-61" value="0.3: 1" style="ellipse;whiteSpace=wrap;html=1;aspect=fixed;fontSize=13;" vertex="1" parent="1">
          <mxGeometry x="400" y="890" width="80" height="80" as="geometry" />
        </mxCell>
        <mxCell id="Z0uKMzJHQEfr-BB_KsoD-62" value="0.125: 2&lt;br style=&quot;font-size: 13px;&quot;&gt;0.4: 1&lt;br style=&quot;font-size: 13px;&quot;&gt;0.5: 3" style="ellipse;whiteSpace=wrap;html=1;aspect=fixed;fontSize=13;" vertex="1" parent="1">
          <mxGeometry x="520" y="890" width="80" height="80" as="geometry" />
        </mxCell>
        <mxCell id="Z0uKMzJHQEfr-BB_KsoD-63" value="" style="endArrow=classic;html=1;rounded=0;exitX=0.063;exitY=0.725;exitDx=0;exitDy=0;entryX=1;entryY=0;entryDx=0;entryDy=0;exitPerimeter=0;fontSize=13;" edge="1" parent="1" source="Z0uKMzJHQEfr-BB_KsoD-58" target="Z0uKMzJHQEfr-BB_KsoD-59">
          <mxGeometry width="50" height="50" relative="1" as="geometry">
            <mxPoint x="250" y="870" as="sourcePoint" />
            <mxPoint x="300" y="820" as="targetPoint" />
          </mxGeometry>
        </mxCell>
        <mxCell id="Z0uKMzJHQEfr-BB_KsoD-64" value="" style="endArrow=classic;html=1;rounded=0;exitX=0.263;exitY=0.938;exitDx=0;exitDy=0;entryX=0.5;entryY=0;entryDx=0;entryDy=0;exitPerimeter=0;fontSize=13;" edge="1" parent="1" source="Z0uKMzJHQEfr-BB_KsoD-58" target="Z0uKMzJHQEfr-BB_KsoD-60">
          <mxGeometry width="50" height="50" relative="1" as="geometry">
            <mxPoint x="360" y="890" as="sourcePoint" />
            <mxPoint x="410" y="840" as="targetPoint" />
          </mxGeometry>
        </mxCell>
        <mxCell id="Z0uKMzJHQEfr-BB_KsoD-65" value="" style="endArrow=classic;html=1;rounded=0;exitX=0.713;exitY=0.963;exitDx=0;exitDy=0;entryX=0.5;entryY=0;entryDx=0;entryDy=0;exitPerimeter=0;fontSize=13;" edge="1" parent="1" source="Z0uKMzJHQEfr-BB_KsoD-58" target="Z0uKMzJHQEfr-BB_KsoD-61">
          <mxGeometry width="50" height="50" relative="1" as="geometry">
            <mxPoint x="460" y="870" as="sourcePoint" />
            <mxPoint x="510" y="820" as="targetPoint" />
          </mxGeometry>
        </mxCell>
        <mxCell id="Z0uKMzJHQEfr-BB_KsoD-66" value="" style="endArrow=classic;html=1;rounded=0;exitX=0.975;exitY=0.725;exitDx=0;exitDy=0;entryX=0;entryY=0;entryDx=0;entryDy=0;exitPerimeter=0;fontSize=13;" edge="1" parent="1" source="Z0uKMzJHQEfr-BB_KsoD-58" target="Z0uKMzJHQEfr-BB_KsoD-62">
          <mxGeometry width="50" height="50" relative="1" as="geometry">
            <mxPoint x="510" y="850" as="sourcePoint" />
            <mxPoint x="560" y="800" as="targetPoint" />
          </mxGeometry>
        </mxCell>
        <mxCell id="Z0uKMzJHQEfr-BB_KsoD-67" value="0.125: 2&lt;br style=&quot;font-size: 13px;&quot;&gt;0.5: 1" style="ellipse;whiteSpace=wrap;html=1;aspect=fixed;fontSize=13;" vertex="1" parent="1">
          <mxGeometry x="460" y="1010" width="80" height="80" as="geometry" />
        </mxCell>
        <mxCell id="Z0uKMzJHQEfr-BB_KsoD-68" style="edgeStyle=orthogonalEdgeStyle;rounded=0;orthogonalLoop=1;jettySize=auto;html=1;exitX=0.5;exitY=1;exitDx=0;exitDy=0;entryX=0.5;entryY=0;entryDx=0;entryDy=0;fontSize=13;" edge="1" parent="1" source="Z0uKMzJHQEfr-BB_KsoD-69" target="Z0uKMzJHQEfr-BB_KsoD-72">
          <mxGeometry relative="1" as="geometry" />
        </mxCell>
        <mxCell id="Z0uKMzJHQEfr-BB_KsoD-69" value="0.4: 1&lt;br style=&quot;font-size: 13px;&quot;&gt;0.5: 3" style="ellipse;whiteSpace=wrap;html=1;aspect=fixed;fontSize=13;" vertex="1" parent="1">
          <mxGeometry x="580" y="1010" width="80" height="80" as="geometry" />
        </mxCell>
        <mxCell id="Z0uKMzJHQEfr-BB_KsoD-70" value="" style="endArrow=classic;html=1;rounded=0;exitX=0;exitY=1;exitDx=0;exitDy=0;entryX=0.5;entryY=0;entryDx=0;entryDy=0;fontSize=13;" edge="1" parent="1" source="Z0uKMzJHQEfr-BB_KsoD-62" target="Z0uKMzJHQEfr-BB_KsoD-67">
          <mxGeometry width="50" height="50" relative="1" as="geometry">
            <mxPoint x="540" y="1160" as="sourcePoint" />
            <mxPoint x="590" y="1110" as="targetPoint" />
          </mxGeometry>
        </mxCell>
        <mxCell id="Z0uKMzJHQEfr-BB_KsoD-71" value="" style="endArrow=classic;html=1;rounded=0;exitX=1;exitY=1;exitDx=0;exitDy=0;entryX=0.5;entryY=0;entryDx=0;entryDy=0;fontSize=13;" edge="1" parent="1" source="Z0uKMzJHQEfr-BB_KsoD-62" target="Z0uKMzJHQEfr-BB_KsoD-69">
          <mxGeometry width="50" height="50" relative="1" as="geometry">
            <mxPoint x="670" y="980" as="sourcePoint" />
            <mxPoint x="720" y="930" as="targetPoint" />
          </mxGeometry>
        </mxCell>
        <mxCell id="Z0uKMzJHQEfr-BB_KsoD-72" value="0.4: 1&lt;br style=&quot;border-color: var(--border-color); font-size: 13px;&quot;&gt;0.5: 3" style="ellipse;whiteSpace=wrap;html=1;aspect=fixed;fontSize=13;" vertex="1" parent="1">
          <mxGeometry x="580" y="1130" width="80" height="80" as="geometry" />
        </mxCell>
        <mxCell id="Z0uKMzJHQEfr-BB_KsoD-73" value="0.4: 1" style="ellipse;whiteSpace=wrap;html=1;aspect=fixed;fontSize=13;" vertex="1" parent="1">
          <mxGeometry x="100" y="1010" width="80" height="80" as="geometry" />
        </mxCell>
        <mxCell id="Z0uKMzJHQEfr-BB_KsoD-74" value="0.3: 2&lt;br style=&quot;font-size: 13px;&quot;&gt;0.7: 1&lt;br style=&quot;font-size: 13px;&quot;&gt;0.8: 1" style="ellipse;whiteSpace=wrap;html=1;aspect=fixed;fontSize=13;" vertex="1" parent="1">
          <mxGeometry x="220" y="1010" width="80" height="80" as="geometry" />
        </mxCell>
        <mxCell id="Z0uKMzJHQEfr-BB_KsoD-75" value="" style="endArrow=classic;html=1;rounded=0;exitX=0;exitY=1;exitDx=0;exitDy=0;entryX=0.5;entryY=0;entryDx=0;entryDy=0;fontSize=13;" edge="1" parent="1" source="Z0uKMzJHQEfr-BB_KsoD-59" target="Z0uKMzJHQEfr-BB_KsoD-73">
          <mxGeometry width="50" height="50" relative="1" as="geometry">
            <mxPoint x="50" y="990" as="sourcePoint" />
            <mxPoint x="100" y="940" as="targetPoint" />
          </mxGeometry>
        </mxCell>
        <mxCell id="Z0uKMzJHQEfr-BB_KsoD-76" value="" style="endArrow=classic;html=1;rounded=0;exitX=1;exitY=1;exitDx=0;exitDy=0;entryX=0.388;entryY=0.038;entryDx=0;entryDy=0;entryPerimeter=0;fontSize=13;" edge="1" parent="1" source="Z0uKMzJHQEfr-BB_KsoD-59" target="Z0uKMzJHQEfr-BB_KsoD-74">
          <mxGeometry width="50" height="50" relative="1" as="geometry">
            <mxPoint x="250" y="1170" as="sourcePoint" />
            <mxPoint x="300" y="1120" as="targetPoint" />
          </mxGeometry>
        </mxCell>
        <mxCell id="Z0uKMzJHQEfr-BB_KsoD-77" value="0.4: 1" style="ellipse;whiteSpace=wrap;html=1;aspect=fixed;fontSize=13;" vertex="1" parent="1">
          <mxGeometry x="40" y="1130" width="80" height="80" as="geometry" />
        </mxCell>
        <mxCell id="Z0uKMzJHQEfr-BB_KsoD-78" value="0.3: 2" style="ellipse;whiteSpace=wrap;html=1;aspect=fixed;fontSize=13;" vertex="1" parent="1">
          <mxGeometry x="170" y="1130" width="80" height="80" as="geometry" />
        </mxCell>
        <mxCell id="Z0uKMzJHQEfr-BB_KsoD-79" value="" style="endArrow=classic;html=1;rounded=0;exitX=0;exitY=1;exitDx=0;exitDy=0;entryX=0.5;entryY=0;entryDx=0;entryDy=0;fontSize=13;" edge="1" parent="1" source="Z0uKMzJHQEfr-BB_KsoD-73" target="Z0uKMzJHQEfr-BB_KsoD-77">
          <mxGeometry width="50" height="50" relative="1" as="geometry">
            <mxPoint x="40" y="1160" as="sourcePoint" />
            <mxPoint x="90" y="1110" as="targetPoint" />
          </mxGeometry>
        </mxCell>
        <mxCell id="Z0uKMzJHQEfr-BB_KsoD-80" style="edgeStyle=orthogonalEdgeStyle;rounded=0;orthogonalLoop=1;jettySize=auto;html=1;exitX=0.5;exitY=1;exitDx=0;exitDy=0;entryX=0.5;entryY=0;entryDx=0;entryDy=0;fontSize=13;" edge="1" parent="1" source="Z0uKMzJHQEfr-BB_KsoD-81" target="Z0uKMzJHQEfr-BB_KsoD-85">
          <mxGeometry relative="1" as="geometry" />
        </mxCell>
        <mxCell id="Z0uKMzJHQEfr-BB_KsoD-81" value="0.7:1&lt;br style=&quot;font-size: 13px;&quot;&gt;0.8: 1" style="ellipse;whiteSpace=wrap;html=1;aspect=fixed;fontSize=13;" vertex="1" parent="1">
          <mxGeometry x="270" y="1130" width="80" height="80" as="geometry" />
        </mxCell>
        <mxCell id="Z0uKMzJHQEfr-BB_KsoD-82" value="" style="endArrow=classic;html=1;rounded=0;exitX=0;exitY=1;exitDx=0;exitDy=0;entryX=0.5;entryY=0;entryDx=0;entryDy=0;fontSize=13;" edge="1" parent="1" source="Z0uKMzJHQEfr-BB_KsoD-74" target="Z0uKMzJHQEfr-BB_KsoD-78">
          <mxGeometry width="50" height="50" relative="1" as="geometry">
            <mxPoint x="300" y="1290" as="sourcePoint" />
            <mxPoint x="350" y="1240" as="targetPoint" />
          </mxGeometry>
        </mxCell>
        <mxCell id="Z0uKMzJHQEfr-BB_KsoD-83" value="" style="endArrow=classic;html=1;rounded=0;exitX=1;exitY=1;exitDx=0;exitDy=0;entryX=0.5;entryY=0;entryDx=0;entryDy=0;fontSize=13;" edge="1" parent="1" source="Z0uKMzJHQEfr-BB_KsoD-74" target="Z0uKMzJHQEfr-BB_KsoD-81">
          <mxGeometry width="50" height="50" relative="1" as="geometry">
            <mxPoint x="330" y="1130" as="sourcePoint" />
            <mxPoint x="380" y="1080" as="targetPoint" />
          </mxGeometry>
        </mxCell>
        <mxCell id="Z0uKMzJHQEfr-BB_KsoD-84" value="Symulacja" style="text;html=1;align=center;verticalAlign=middle;resizable=0;points=[];autosize=1;strokeColor=none;fillColor=none;fontSize=20;fontStyle=1" vertex="1" parent="1">
          <mxGeometry x="320" y="670" width="120" height="40" as="geometry" />
        </mxCell>
        <mxCell id="Z0uKMzJHQEfr-BB_KsoD-85" value="&lt;b&gt;Symulowanie poprzez tworzenie losowych węzłów-dzieci...&lt;/b&gt;" style="ellipse;whiteSpace=wrap;html=1;aspect=fixed;fillColor=#d5e8d4;strokeColor=#82b366;fontSize=13;" vertex="1" parent="1">
          <mxGeometry x="250" y="1240" width="120" height="120" as="geometry" />
        </mxCell>
        <mxCell id="Z0uKMzJHQEfr-BB_KsoD-86" value="0.125: 3&lt;br style=&quot;font-size: 13px;&quot;&gt;0.3: 3&lt;br style=&quot;font-size: 13px;&quot;&gt;&lt;b style=&quot;font-size: 13px;&quot;&gt;0.4: 2&lt;br style=&quot;font-size: 13px;&quot;&gt;&lt;/b&gt;0.5: 3&lt;br style=&quot;font-size: 13px;&quot;&gt;0.7: 1&lt;br style=&quot;font-size: 13px;&quot;&gt;0.8: 1" style="ellipse;whiteSpace=wrap;html=1;aspect=fixed;fillColor=#d5e8d4;strokeColor=#82b366;fontSize=13;" vertex="1" parent="1">
          <mxGeometry x="1000" y="720" width="120" height="120" as="geometry" />
        </mxCell>
        <mxCell id="Z0uKMzJHQEfr-BB_KsoD-87" value="0.3: 2&lt;br style=&quot;font-size: 13px;&quot;&gt;&lt;b style=&quot;font-size: 13px;&quot;&gt;0.4: 2&lt;/b&gt;&lt;br style=&quot;font-size: 13px;&quot;&gt;0.7: 1&lt;br style=&quot;font-size: 13px;&quot;&gt;0.8: 1" style="ellipse;whiteSpace=wrap;html=1;aspect=fixed;fillColor=#d5e8d4;strokeColor=#82b366;fontSize=13;" vertex="1" parent="1">
          <mxGeometry x="840" y="890" width="80" height="80" as="geometry" />
        </mxCell>
        <mxCell id="Z0uKMzJHQEfr-BB_KsoD-88" value="0.125: 1" style="ellipse;whiteSpace=wrap;html=1;aspect=fixed;fontSize=13;" vertex="1" parent="1">
          <mxGeometry x="960" y="890" width="80" height="80" as="geometry" />
        </mxCell>
        <mxCell id="Z0uKMzJHQEfr-BB_KsoD-89" value="0.3: 1" style="ellipse;whiteSpace=wrap;html=1;aspect=fixed;fontSize=13;" vertex="1" parent="1">
          <mxGeometry x="1080" y="890" width="80" height="80" as="geometry" />
        </mxCell>
        <mxCell id="Z0uKMzJHQEfr-BB_KsoD-90" value="0.125: 2&lt;br style=&quot;font-size: 13px;&quot;&gt;0.4: 1&lt;br style=&quot;font-size: 13px;&quot;&gt;0.5: 3" style="ellipse;whiteSpace=wrap;html=1;aspect=fixed;fontSize=13;" vertex="1" parent="1">
          <mxGeometry x="1200" y="890" width="80" height="80" as="geometry" />
        </mxCell>
        <mxCell id="Z0uKMzJHQEfr-BB_KsoD-91" value="" style="endArrow=classic;html=1;rounded=0;exitX=0.063;exitY=0.725;exitDx=0;exitDy=0;entryX=1;entryY=0;entryDx=0;entryDy=0;exitPerimeter=0;fontSize=13;" edge="1" parent="1" source="Z0uKMzJHQEfr-BB_KsoD-86" target="Z0uKMzJHQEfr-BB_KsoD-87">
          <mxGeometry width="50" height="50" relative="1" as="geometry">
            <mxPoint x="930" y="870" as="sourcePoint" />
            <mxPoint x="980" y="820" as="targetPoint" />
          </mxGeometry>
        </mxCell>
        <mxCell id="Z0uKMzJHQEfr-BB_KsoD-92" value="" style="endArrow=classic;html=1;rounded=0;exitX=0.263;exitY=0.938;exitDx=0;exitDy=0;entryX=0.5;entryY=0;entryDx=0;entryDy=0;exitPerimeter=0;fontSize=13;" edge="1" parent="1" source="Z0uKMzJHQEfr-BB_KsoD-86" target="Z0uKMzJHQEfr-BB_KsoD-88">
          <mxGeometry width="50" height="50" relative="1" as="geometry">
            <mxPoint x="1040" y="890" as="sourcePoint" />
            <mxPoint x="1090" y="840" as="targetPoint" />
          </mxGeometry>
        </mxCell>
        <mxCell id="Z0uKMzJHQEfr-BB_KsoD-93" value="" style="endArrow=classic;html=1;rounded=0;exitX=0.713;exitY=0.963;exitDx=0;exitDy=0;entryX=0.5;entryY=0;entryDx=0;entryDy=0;exitPerimeter=0;fontSize=13;" edge="1" parent="1" source="Z0uKMzJHQEfr-BB_KsoD-86" target="Z0uKMzJHQEfr-BB_KsoD-89">
          <mxGeometry width="50" height="50" relative="1" as="geometry">
            <mxPoint x="1140" y="870" as="sourcePoint" />
            <mxPoint x="1190" y="820" as="targetPoint" />
          </mxGeometry>
        </mxCell>
        <mxCell id="Z0uKMzJHQEfr-BB_KsoD-94" value="" style="endArrow=classic;html=1;rounded=0;exitX=0.975;exitY=0.725;exitDx=0;exitDy=0;entryX=0;entryY=0;entryDx=0;entryDy=0;exitPerimeter=0;fontSize=13;" edge="1" parent="1" source="Z0uKMzJHQEfr-BB_KsoD-86" target="Z0uKMzJHQEfr-BB_KsoD-90">
          <mxGeometry width="50" height="50" relative="1" as="geometry">
            <mxPoint x="1190" y="850" as="sourcePoint" />
            <mxPoint x="1240" y="800" as="targetPoint" />
          </mxGeometry>
        </mxCell>
        <mxCell id="Z0uKMzJHQEfr-BB_KsoD-95" value="0.125: 2&lt;br style=&quot;font-size: 13px;&quot;&gt;0.5: 1" style="ellipse;whiteSpace=wrap;html=1;aspect=fixed;fontSize=13;" vertex="1" parent="1">
          <mxGeometry x="1140" y="1010" width="80" height="80" as="geometry" />
        </mxCell>
        <mxCell id="Z0uKMzJHQEfr-BB_KsoD-96" style="edgeStyle=orthogonalEdgeStyle;rounded=0;orthogonalLoop=1;jettySize=auto;html=1;exitX=0.5;exitY=1;exitDx=0;exitDy=0;entryX=0.5;entryY=0;entryDx=0;entryDy=0;fontSize=13;" edge="1" parent="1" source="Z0uKMzJHQEfr-BB_KsoD-97" target="Z0uKMzJHQEfr-BB_KsoD-100">
          <mxGeometry relative="1" as="geometry" />
        </mxCell>
        <mxCell id="Z0uKMzJHQEfr-BB_KsoD-97" value="0.4: 1&lt;br style=&quot;font-size: 13px;&quot;&gt;0.5: 3" style="ellipse;whiteSpace=wrap;html=1;aspect=fixed;fontSize=13;" vertex="1" parent="1">
          <mxGeometry x="1260" y="1010" width="80" height="80" as="geometry" />
        </mxCell>
        <mxCell id="Z0uKMzJHQEfr-BB_KsoD-98" value="" style="endArrow=classic;html=1;rounded=0;exitX=0;exitY=1;exitDx=0;exitDy=0;entryX=0.5;entryY=0;entryDx=0;entryDy=0;fontSize=13;" edge="1" parent="1" source="Z0uKMzJHQEfr-BB_KsoD-90" target="Z0uKMzJHQEfr-BB_KsoD-95">
          <mxGeometry width="50" height="50" relative="1" as="geometry">
            <mxPoint x="1220" y="1160" as="sourcePoint" />
            <mxPoint x="1270" y="1110" as="targetPoint" />
          </mxGeometry>
        </mxCell>
        <mxCell id="Z0uKMzJHQEfr-BB_KsoD-99" value="" style="endArrow=classic;html=1;rounded=0;exitX=1;exitY=1;exitDx=0;exitDy=0;entryX=0.5;entryY=0;entryDx=0;entryDy=0;fontSize=13;" edge="1" parent="1" source="Z0uKMzJHQEfr-BB_KsoD-90" target="Z0uKMzJHQEfr-BB_KsoD-97">
          <mxGeometry width="50" height="50" relative="1" as="geometry">
            <mxPoint x="1350" y="980" as="sourcePoint" />
            <mxPoint x="1400" y="930" as="targetPoint" />
          </mxGeometry>
        </mxCell>
        <mxCell id="Z0uKMzJHQEfr-BB_KsoD-100" value="0.4: 1&lt;br style=&quot;border-color: var(--border-color); font-size: 13px;&quot;&gt;0.5: 3" style="ellipse;whiteSpace=wrap;html=1;aspect=fixed;fontSize=13;" vertex="1" parent="1">
          <mxGeometry x="1260" y="1130" width="80" height="80" as="geometry" />
        </mxCell>
        <mxCell id="Z0uKMzJHQEfr-BB_KsoD-101" value="0.4: 1" style="ellipse;whiteSpace=wrap;html=1;aspect=fixed;fontSize=13;" vertex="1" parent="1">
          <mxGeometry x="780" y="1010" width="80" height="80" as="geometry" />
        </mxCell>
        <mxCell id="Z0uKMzJHQEfr-BB_KsoD-102" value="0.3: 2&lt;br style=&quot;font-size: 13px;&quot;&gt;&lt;b style=&quot;font-size: 13px;&quot;&gt;0.4: 1&lt;/b&gt;&lt;br style=&quot;font-size: 13px;&quot;&gt;0.7: 1&lt;br style=&quot;font-size: 13px;&quot;&gt;0.8: 1" style="ellipse;whiteSpace=wrap;html=1;aspect=fixed;fillColor=#d5e8d4;strokeColor=#82b366;fontSize=13;" vertex="1" parent="1">
          <mxGeometry x="900" y="1010" width="80" height="80" as="geometry" />
        </mxCell>
        <mxCell id="Z0uKMzJHQEfr-BB_KsoD-103" value="" style="endArrow=classic;html=1;rounded=0;exitX=0;exitY=1;exitDx=0;exitDy=0;entryX=0.5;entryY=0;entryDx=0;entryDy=0;fontSize=13;" edge="1" parent="1" source="Z0uKMzJHQEfr-BB_KsoD-87" target="Z0uKMzJHQEfr-BB_KsoD-101">
          <mxGeometry width="50" height="50" relative="1" as="geometry">
            <mxPoint x="730" y="990" as="sourcePoint" />
            <mxPoint x="780" y="940" as="targetPoint" />
          </mxGeometry>
        </mxCell>
        <mxCell id="Z0uKMzJHQEfr-BB_KsoD-104" value="" style="endArrow=classic;html=1;rounded=0;exitX=1;exitY=1;exitDx=0;exitDy=0;entryX=0.388;entryY=0.038;entryDx=0;entryDy=0;entryPerimeter=0;fontSize=13;" edge="1" parent="1" source="Z0uKMzJHQEfr-BB_KsoD-87" target="Z0uKMzJHQEfr-BB_KsoD-102">
          <mxGeometry width="50" height="50" relative="1" as="geometry">
            <mxPoint x="930" y="1170" as="sourcePoint" />
            <mxPoint x="980" y="1120" as="targetPoint" />
          </mxGeometry>
        </mxCell>
        <mxCell id="Z0uKMzJHQEfr-BB_KsoD-105" value="0.4: 1" style="ellipse;whiteSpace=wrap;html=1;aspect=fixed;fontSize=13;" vertex="1" parent="1">
          <mxGeometry x="720" y="1130" width="80" height="80" as="geometry" />
        </mxCell>
        <mxCell id="Z0uKMzJHQEfr-BB_KsoD-106" value="0.3: 2" style="ellipse;whiteSpace=wrap;html=1;aspect=fixed;fontSize=13;" vertex="1" parent="1">
          <mxGeometry x="850" y="1130" width="80" height="80" as="geometry" />
        </mxCell>
        <mxCell id="Z0uKMzJHQEfr-BB_KsoD-107" value="" style="endArrow=classic;html=1;rounded=0;exitX=0;exitY=1;exitDx=0;exitDy=0;entryX=0.5;entryY=0;entryDx=0;entryDy=0;fontSize=13;" edge="1" parent="1" source="Z0uKMzJHQEfr-BB_KsoD-101" target="Z0uKMzJHQEfr-BB_KsoD-105">
          <mxGeometry width="50" height="50" relative="1" as="geometry">
            <mxPoint x="720" y="1160" as="sourcePoint" />
            <mxPoint x="770" y="1110" as="targetPoint" />
          </mxGeometry>
        </mxCell>
        <mxCell id="Z0uKMzJHQEfr-BB_KsoD-108" style="edgeStyle=orthogonalEdgeStyle;rounded=0;orthogonalLoop=1;jettySize=auto;html=1;exitX=0.5;exitY=1;exitDx=0;exitDy=0;entryX=0.5;entryY=0;entryDx=0;entryDy=0;fontSize=13;" edge="1" parent="1" source="Z0uKMzJHQEfr-BB_KsoD-109" target="Z0uKMzJHQEfr-BB_KsoD-113">
          <mxGeometry relative="1" as="geometry" />
        </mxCell>
        <mxCell id="Z0uKMzJHQEfr-BB_KsoD-109" value="&lt;b style=&quot;font-size: 13px;&quot;&gt;0.4: 1&lt;/b&gt;&lt;br style=&quot;font-size: 13px;&quot;&gt;0.7:1&lt;br style=&quot;font-size: 13px;&quot;&gt;0.8: 1" style="ellipse;whiteSpace=wrap;html=1;aspect=fixed;fillColor=#d5e8d4;strokeColor=#82b366;fontSize=13;" vertex="1" parent="1">
          <mxGeometry x="950" y="1130" width="80" height="80" as="geometry" />
        </mxCell>
        <mxCell id="Z0uKMzJHQEfr-BB_KsoD-110" value="" style="endArrow=classic;html=1;rounded=0;exitX=0;exitY=1;exitDx=0;exitDy=0;entryX=0.5;entryY=0;entryDx=0;entryDy=0;fontSize=13;" edge="1" parent="1" source="Z0uKMzJHQEfr-BB_KsoD-102" target="Z0uKMzJHQEfr-BB_KsoD-106">
          <mxGeometry width="50" height="50" relative="1" as="geometry">
            <mxPoint x="980" y="1290" as="sourcePoint" />
            <mxPoint x="1030" y="1240" as="targetPoint" />
          </mxGeometry>
        </mxCell>
        <mxCell id="Z0uKMzJHQEfr-BB_KsoD-111" value="" style="endArrow=classic;html=1;rounded=0;exitX=1;exitY=1;exitDx=0;exitDy=0;entryX=0.5;entryY=0;entryDx=0;entryDy=0;fontSize=13;" edge="1" parent="1" source="Z0uKMzJHQEfr-BB_KsoD-102" target="Z0uKMzJHQEfr-BB_KsoD-109">
          <mxGeometry width="50" height="50" relative="1" as="geometry">
            <mxPoint x="1010" y="1130" as="sourcePoint" />
            <mxPoint x="1060" y="1080" as="targetPoint" />
          </mxGeometry>
        </mxCell>
        <mxCell id="Z0uKMzJHQEfr-BB_KsoD-112" value="Propagacja wsteczna" style="text;html=1;align=center;verticalAlign=middle;resizable=0;points=[];autosize=1;strokeColor=none;fillColor=none;fontSize=20;fontStyle=1" vertex="1" parent="1">
          <mxGeometry x="945" y="670" width="230" height="40" as="geometry" />
        </mxCell>
        <mxCell id="Z0uKMzJHQEfr-BB_KsoD-113" value="Wynik symulacji:&lt;br style=&quot;font-size: 13px;&quot;&gt;&lt;b style=&quot;font-size: 13px;&quot;&gt;0.4: 1&lt;/b&gt;" style="ellipse;whiteSpace=wrap;html=1;aspect=fixed;fillColor=#d5e8d4;strokeColor=#82b366;fontSize=13;" vertex="1" parent="1">
          <mxGeometry x="950" y="1250" width="80" height="80" as="geometry" />
        </mxCell>
      </root>
    </mxGraphModel>
  </diagram>
</mxfile>
